<?xml version="1.0" encoding="UTF-8"?>
<svg id="Layer_1" data-name="Layer 1" xmlns="http://www.w3.org/2000/svg" viewBox="0 0 541.73 660.47">
  <defs>
    <style>
      .cls-1 {
        fill: #000000;
        stroke-width: 0px;
      }
    </style>
  </defs>
  <path class="cls-1" d="M268.5,240.81c-.17-.83-.32-1.65-.49-2.48-.44-2.22-.87-4.45-1.34-6.64-.02-.03-.02-.06-.02-.09-2.74-12.62-6.34-25.14-10.58-37.3-.12-.31-.24-.63-.34-.94-.68,2-1.31,3.99-1.99,6.01,0,.03-.02.06-.02.09s0,.03-.02.06c0,.03,0,.06-.02.09-1.14,3.39-2.23,6.81-3.37,10.2-3.79,11.4-7.6,22.8-11.46,34.23-16.12,47.71-32.48,94.7-49.08,140.98-.58,15.47,4.2,28.04,8.16,38.36.78,2.02,1.6,4.02,2.48,5.98.36-.94.56-1.45.56-1.45,4.88-12.57,10.12-26.39,15.66-41.27.75-2.05,1.53-4.1,2.28-6.18.78-2.08,1.58-4.22,2.35-6.36-.39,2.19-.78,4.42-1.14,6.64-.39,2.22-.8,4.45-1.17,6.67,0,.03-.02.06-.02.09-3.52,20.8-6.92,41.55-10.15,62.27-2.33-3.48-5.24-8.15-8.16-14.02-.24-.48-.51-1.03-.75-1.54s-.49-1-.73-1.54c-1.17-2.51-2.33-5.22-3.42-8.12-3.37-8.78-7.55-19.75-8.3-32.92-.05-1.11-.1-2.22-.1-3.36-.02-1.28,0-2.59.07-3.9.07-1.8.19-3.62.44-5.5,1.36-10.94,5.03-19.83,8.69-26.42-1.55.17-3.3.26-5.24.26-4.95,0-11.05-.68-17.6-3.14-29.62-11.03-42.14-47.73-47.02-62.04-18.76-54.97-8.18-120.66,12.36-132.54,1.04-.63,6.43-3.73,11.31-3.73,1.92,0,3.76.48,5.22,1.79,4.39,3.93,2.06,12.23,6.46,14.99.87.57,1.92.83,3.03.83,3.45,0,7.48-2.48,9.27-6.1,3.5-7.04-2.16-16.99-6.04-21.49-6-7.01-14.08-8.44-19.57-8.44-3.11,0-5.41.46-6.04.6-13.79,2.91-22.07,15.76-25.61,21.43-13.69,21.97-9.03,40.41-19.88,90.74-2.11,9.69-4.1,17.47-5.34,22.06,3.86,5.24,7.7,10.52,11.53,15.76,5.34,7.3,10.68,14.59,16.02,21.86-3.11-3.31-8.67-8.09-15.73-8.29-.29-.03-.61-.03-.92-.03-1.46,0-2.99.2-3.59,1.37-1.48,2.79,3.2,9.23,6.51,13.79,2.67,3.68,5.19,6.47,7.06,8.41-.66-.37-1.58-.86-2.69-1.57,0,0-.07-.03-.15-.09-1.07-.66-7.84-5.59-11.07-8.89-7.82-8.04-7.55-19.63-13.04-20.89-.29-.09-.56-.11-.85-.11s-.54.03-.81.1c-3.94.72-6.53,7.88-13.08,10.47-.78.29-1.57.51-2.36.66-.76.13-1.53.2-2.3.2-7.04,0-14.52-5.13-20.9-11,0,.05,0,.11-.01.16-.05-.05-.11-.09-.16-.14-.32,3.56-.44,10.23,2.16,17.64,1.44,4.11,3.39,7.33,5.07,9.69-1.65-.33-11.82-2.18-19.98,4.43-4.91,3.98-6.8,9.45-7.64,14.39-12.54-59.44,1.4-123.42,20.73-133.09,1-.57,5.85-3.16,10.39-3.16,2.35,0,4.64.68,6.24,2.71,4.03,4.96,1.09,14.22,5.27,17.78,1.02.85,2.26,1.23,3.59,1.23,3.3,0,7.14-2.39,9.08-6.07,3.98-7.58-.8-19.29-4.22-24.91-6.68-10.97-17.43-12.34-22.33-12.34-1.17,0-2.01.06-2.35.11-14.03,1.51-23.52,15.73-27.53,22.17C-4.4,245.25.29,308.35.29,308.35c5.58,69.62,39.39,121.68,60.5,148.76,25.64,35,43.48,66.9,55.68,91.68,25.2,51.15,30.3,79.57,29.96,104.01-.06,4.07-.22,6.76-.23,7.67,3.08-1.23,9.78-4.62,14.98-13.11,5.1-8.32,6.17-17.16,6.48-20.43,1.29-14.45-4.42-21.03-1.02-26.3,1.55-2.37,3.81-2.71,6.34-2.71,1.17,0,2.38.06,3.59.06,2.89,0,5.8-.43,8.23-3.28,4.15-4.87,4.08-13.59,2.6-19.35-2.67-10.15-11.48-16.59-18.91-16.59-.58,0-1.17.06-1.72.11-5.92.85-8.57,5.93-9.95,5.93-.1,0-.19-.03-.27-.09-4.61-2.71,15.58-59.99,30.2-99.57-5.05-9.97-11.07-17.98-17.36-24.42-11.48,31.32-23.06,62.33-34.71,92.96-2.48-3.48-5.97-8.52-10.1-14.73-2.69-4.05-7.36-10.89-9.35-14.48-6.34-11.48-14.61-27.19-14.86-48.53-.09-9.53,1.47-17.86,3.55-24.71,5.66-.87,11.68-3,17.17-7.44,3.76-3.04,6.46-6.54,8.43-9.99,7.13,1.94,23.52,7.57,39.06,22.29.34.31.66.63,1,.94.32.31.63.66.97.97,6.29,6.33,12.36,14.19,17.53,23.94.27.48.51.94.75,1.42.1.17.19.37.29.54.17.34.32.68.49,1.03,24.2,49.27,3.35,100.14,1.8,103.73,3.25-.03,10.56-.57,17.82-6.13,7.09-5.44,10.46-12.85,11.58-15.67,5-12.31,1.09-20.01,5.66-23.65,1.04-.83,2.14-1.14,3.3-1.14,3.37,0,7.16,2.68,11.19,2.68,1.41,0,2.86-.34,4.32-1.23,5.17-3.16,7.19-11.23,7.04-16.98-.27-10.17-7.45-21.17-14.76-21.17-.51,0-1.04.06-1.58.17-4.88,1.11-8.76,7.41-10.24,15.05,17.28-105.04,32.63-193.64,43.89-253.43v-.03c-.19-1.25-.44-2.51-.66-3.76-.17-.85-.32-1.71-.46-2.56ZM40.79,349.35c.61,1.18,1.41,2.38,2.47,3.53,5.19,5.63,12.31,5.34,13.29,5.29-3.22-4.38-3.59-8.27-3.63-9.97-.23-10.95,11.46-17.43,14.96-18.79,3.56-1.39,6.74-1.1,6.74-1.1,1.04.1,2.06.32,3.08.67,3.16,1.1,5.38,3.24,6.67,6.43,2.36,5.82.5,12.95-5.62,21.42-10.8,14.88-16.45,22.78-16.93,23.71-5.17,10.21-5.73,20.5-1.74,30.85-6.16-6.22-11.28-13.7-15.49-21.25-6.8-13.9-7.82-28.71-3.81-40.79ZM108.65,414.46c-10.76,5.45-29.13,2.62-33.17-6.05-1.98-4.25-.6-9.35,2.67-16.95,1.68-3.9,5.39-10.74,11.14-20.51,4.98-8.48,8.01-14.47,9.08-17.98.39-1.28,1.01-6.85-.98-13.52-.63-2.12-3.07-10.2-9.64-15.38,1.02.24,2.01.5,2.98.81,0,.02,0,.04,0,.06,7.02,2.43,13.77,6.88,19.22,11.74,1.88,1.79,3.43,3.46,4.64,4.8l-.24-.48c.14.15.3.3.44.46,2.28,2.53,4.39,5.34,6.33,8.37,8.5,30.94,2.4,57.12-12.44,64.63Z"/>
  <path class="cls-1" d="M517.98,200c-4.01-6.44-13.5-20.66-27.53-22.17-.34-.06-1.19-.11-2.35-.11-4.9,0-15.66,1.37-22.33,12.34-3.42,5.61-8.21,17.33-4.22,24.91,1.94,3.68,5.78,6.07,9.08,6.07,1.34,0,2.57-.37,3.59-1.23,4.18-3.56,1.24-12.82,5.27-17.78,1.6-2.02,3.88-2.71,6.24-2.71,4.54,0,9.39,2.59,10.39,3.16,19.38,9.71,33.35,74,20.63,133.57-.8-5.06-2.64-10.77-7.72-14.89-8.16-6.61-18.33-4.76-19.98-4.43,1.68-2.36,3.63-5.58,5.07-9.69,2.6-7.41,2.48-14.08,2.16-17.64-6.38,5.87-13.86,11-20.88,11-1.65,0-3.28-.28-4.86-.88-6.89-2.74-9.39-10.54-13.72-10.54-.27,0-.56.03-.85.11-5.49,1.25-5.2,12.85-13.01,20.89-3.23,3.31-10.03,8.24-11.07,8.89-.07.06-.15.09-.15.09-1.14.71-2.06,1.2-2.72,1.57,1.89-1.94,4.39-4.73,7.06-8.41,3.33-4.56,7.99-11,6.53-13.79-.63-1.17-2.14-1.37-3.59-1.37-.32,0-.63,0-.95.03-7.04.2-12.62,4.99-15.73,8.29,5.34-7.27,10.68-14.56,16.02-21.86,3.86-5.24,7.7-10.52,11.53-15.76-1.24-4.59-3.23-12.37-5.32-22.06-10.85-50.33-6.21-68.77-19.91-90.74-3.54-5.67-11.8-18.52-25.59-21.43-.66-.14-2.94-.6-6.04-.6-5.51,0-13.57,1.42-19.59,8.44-3.86,4.5-9.52,14.45-6.04,21.49,1.82,3.62,5.85,6.1,9.27,6.1,1.12,0,2.16-.26,3.06-.83,4.39-2.76,2.06-11.06,6.43-14.99,1.48-1.31,3.33-1.79,5.24-1.79,4.88,0,10.27,3.11,11.31,3.73,20.51,11.88,31.12,77.57,12.36,132.54-4.88,14.31-17.43,51.01-47.05,62.04-6.55,2.45-12.62,3.14-17.6,3.14-1.92,0-3.69-.09-5.22-.26,3.67,6.58,7.33,15.47,8.69,26.42.22,1.88.36,3.7.44,5.5.05,1.31.07,2.62.07,3.9,0,1.14-.05,2.25-.12,3.36-.73,13.17-4.93,24.14-8.28,32.92-1.12,2.91-2.26,5.61-3.42,8.12-.24.54-.51,1.03-.75,1.54-.24.51-.49,1.05-.73,1.54-2.91,5.87-5.83,10.54-8.16,14.02-4.01-22.51-8.04-45.06-12.11-67.57-.44-2.34-.87-4.67-1.29-7.01,0-.03,0-.06-.02-.09-.41-2.34-.85-4.7-1.29-7.04.85,2.28,1.68,4.5,2.48,6.75,0,.03.02.03.02.06.83,2.19,1.65,4.47,2.45,6.64,6.26,16.9,12.14,32.37,17.55,46.39,0,0,.19.51.56,1.45.87-1.97,1.72-3.96,2.5-5.98,3.93-10.32,8.74-22.88,8.13-38.36-16.58-46.28-32.97-93.27-49.06-140.98-4.03-11.88-7.99-23.77-11.92-35.59-.97-2.88-1.92-5.76-2.86-8.63-.02-.06-.02-.09-.05-.14-.75-1.65-1.48-3.31-2.21-4.96-.07-.2-.17-.4-.27-.6-.02-.06-.05-.11-.07-.17-.17-.43-.39-.88-.56-1.31l-.07-.14-.02-.03c-.05-.09-.07-.17-.12-.26-.17-.4-.34-.8-.51-1.2h-.02c-.19-.48-.39-.97-.58-1.42-.22-.48-.41-.94-.61-1.42-1.63-3.85-3.23-7.72-4.78-11.66-.07-.2-.15-.37-.24-.57-.34-.86-.7-1.77-1.04-2.65-.15-.34-.27-.71-.41-1.05-.05-.14-.1-.26-.15-.37,0-.03,0-.06-.02-.09v-.03c-.22-.51-.39-1.03-.58-1.54-.9-2.34-1.8-4.7-2.67-7.07-.56-1.57-1.09-3.11-1.65-4.67-.02.06-.02.09-.05.14-.24-.77-.49-1.48-.73-2.25v-.03c-.1-.29-.19-.57-.29-.88-.12-.31-.24-.66-.36-1v-.03c-.02-.09-.05-.14-.07-.23h.02v-.03c-1.31-4.3-2.43-8.26-3.28-11.8-8.59-34.97-5.68-54.83-3.86-62.92,2.31-10.32,5.83-18.32,8.57-23.68,2.74,5.36,6.26,13.37,8.57,23.68,5.53,24.65.44,45.4-3.86,62.92-.87,3.65-2.02,7.75-3.4,12.23.85,2.48,1.72,4.93,2.62,7.44.68,1.82,1.38,3.65,2.06,5.47.19.51.39,1.03.58,1.51.73,1.94,1.46,3.82,2.21,5.73,1.46,3.7,2.96,7.35,4.52,11,.07.2.17.46.29.68,0,.06.02.09.05.14.07.17.15.37.24.57.17.4.32.8.49,1.2.02-.06.05-.09.07-.11l.44-.86c.07-.11.15-.26.19-.37.1-.17.19-.34.27-.51,3.69-6.9,6.46-11.66,8.18-13.96,2.18-2.91,8.06-10.8,16.56-11.46.36-.03.75-.03,1.12-.03,5.97,0,11.14,3.62,14.83,7.18,1.17-2.74,2.84-7.69,2.48-13.85-.8-13.34-10.97-25.68-19.54-25.68-.27,0-.51.03-.78.03-6.21.57-9.32,7.75-11.34,7.75-.17,0-.32-.06-.46-.14-3.3-2.08,8.33-21.74,6.7-45.8-1.31-19.09-10.66-36.31-16.07-46.22-3.67-6.7-8.37-14.02-12.57-26.7-2.38-7.18-3.69-13.39-4.44-17.58-.73,4.19-2.06,10.4-4.44,17.58-4.2,12.68-8.93,19.98-12.57,26.7-2.89,5.36-13.57,25.16-16.07,46.22-1.02,8.69-1.51,24.88,6.7,45.8-5.22-6.87-10.37-7.5-11.8-7.61h-.75c-10.03,0-18.81,13.34-19.57,25.65-.36,6.16,1.31,11.11,2.48,13.85.9-1.05,6.41-7.18,14.78-7.18.39,0,.78,0,1.17.03,8.5.57,14.37,8.55,16.56,11.46,1.63,2.19,4.2,6.58,7.6,12.91.02.03.05.09.07.14s.05.14.07.2c.19.51.36,1.03.53,1.54.05.09.07.17.12.29,0,.03,0,.06.02.09.15.43.29.85.46,1.28.07.2.15.4.22.6.02.09.05.14.07.23.32.83.61,1.68.92,2.54.17.54.39,1.08.56,1.62.15.34.27.71.39,1.05.27.8.56,1.57.83,2.34.17.57.34,1.11.51,1.65.41,1.25.8,2.48,1.19,3.73,1.21,3.9,2.38,7.84,3.47,11.8.15.51.29,1.05.44,1.6v.03c.02.06.05.14.05.2.02.06.05.11.05.17t.02.06c.02.11.07.26.1.37,1.24,4.62,2.38,9.23,3.4,13.88.05.34.12.66.19,1,.1.51.19,1.03.32,1.51.02.09.05.2.05.29v.06c.17.77.34,1.6.51,2.37.15.83.34,1.62.49,2.45,0,.03-.02.03,0,.06.12.6.24,1.25.36,1.85.19,1.14.39,2.25.61,3.39.07.51.17,1.03.27,1.54.02.26.07.48.12.71.05.28.1.54.15.83.02.11.05.2.07.31,11.26,59.79,26.61,148.39,43.87,253.43-1.46-7.64-5.34-13.94-10.24-15.05-.51-.11-1.04-.17-1.58-.17-7.28,0-14.49,11-14.74,21.17-.17,5.76,1.84,13.82,7.02,16.98,1.48.88,2.91,1.23,4.35,1.23,4.03,0,7.82-2.68,11.19-2.68,1.14,0,2.26.31,3.3,1.14,4.54,3.65.66,11.34,5.63,23.65,1.14,2.82,4.52,10.23,11.6,15.67,7.26,5.56,14.54,6.1,17.79,6.13-1.53-3.59-22.41-54.46,1.82-103.73.15-.34.29-.68.46-1.03.1-.17.19-.37.29-.54.24-.48.51-.94.75-1.43,5.17-9.75,11.24-17.61,17.55-23.94.32-.31.66-.66.97-.97.32-.31.66-.63.97-.94,15.58-14.76,32.02-20.38,39.13-22.31,1.97,3.45,4.67,6.95,8.44,10,5.46,4.42,11.45,6.54,17.1,7.42,2.08,6.85,3.64,15.18,3.55,24.72-.24,21.34-8.52,37.05-14.86,48.53-1.99,3.59-6.65,10.43-9.35,14.48-4.13,6.21-7.62,11.26-10.1,14.73-11.65-30.64-23.23-61.64-34.71-92.96-6.29,6.44-12.31,14.45-17.36,24.42,14.61,39.58,34.81,96.86,30.2,99.57-.07.06-.17.09-.27.09-1.38,0-4.03-5.07-9.95-5.93-.56-.06-1.14-.11-1.72-.11-7.43,0-16.24,6.44-18.91,16.59-1.48,5.76-1.55,14.48,2.6,19.35,2.43,2.85,5.34,3.28,8.23,3.28,1.21,0,2.43-.06,3.59-.06,2.52,0,4.78.34,6.34,2.71,3.4,5.27-2.31,11.86-1.02,26.3.32,3.28,1.38,12.11,6.48,20.43,5.2,8.49,11.9,11.88,14.98,13.11,0-.91-.17-3.6-.23-7.67-.34-24.44,4.77-52.87,29.96-104.01,12.21-24.78,30.05-56.68,55.68-91.68,21.11-27.08,54.91-79.13,60.5-148.76,0,0,4.69-63.1-23.45-108.35ZM495.01,393.79c-3.75,6.24-8.15,12.29-13.26,17.48,3.94-10.31,3.37-20.56-1.78-30.74-.48-.93-6.13-8.83-16.93-23.71-6.11-8.46-7.98-15.6-5.62-21.42,1.3-3.19,3.52-5.33,6.67-6.43,1.01-.35,2.04-.58,3.08-.67,0,0,3.18-.29,6.74,1.1,3.51,1.37,15.19,7.84,14.96,18.79-.04,1.7-.4,5.59-3.63,9.97.98.06,8.11.34,13.29-5.29.98-1.06,1.71-2.16,2.3-3.25,4.24,13.1,2.64,29.36-5.83,44.16ZM420.74,349.69c1.91-2.97,3.99-5.74,6.23-8.22,4.47-4.96,13.56-14.49,27.23-17.5-6.69,5.17-9.15,13.36-9.79,15.49-1.99,6.67-1.37,12.24-.98,13.52,1.07,3.51,4.1,9.5,9.08,17.98,5.75,9.77,9.46,16.6,11.14,20.51,3.27,7.6,4.65,12.69,2.67,16.95-4.04,8.67-22.41,11.5-33.17,6.05-14.87-7.53-20.96-33.78-12.41-64.77Z"/>
</svg>